<svg width="43" height="41" viewBox="0 0 43 41" fill="none" xmlns="http://www.w3.org/2000/svg">
<g filter="url(#filter0_d_447_1117)">
<rect x="4.9668" y="4.06836" width="33.0353" height="31.092" rx="15.546" fill="#002147"/>
<path d="M14.5205 19.6146C14.5205 19.8293 14.6058 20.0353 14.7577 20.1871C14.9095 20.339 15.1155 20.4243 15.3302 20.4243H20.1883C20.4031 20.4243 20.609 20.339 20.7609 20.1871C20.9127 20.0353 20.998 19.8293 20.998 19.6146V13.1371C20.998 12.9223 20.9127 12.7164 20.7609 12.5645C20.609 12.4127 20.4031 12.3274 20.1883 12.3274H15.3302C15.1155 12.3274 14.9095 12.4127 14.7577 12.5645C14.6058 12.7164 14.5205 12.9223 14.5205 13.1371V19.6146ZM14.5205 26.0921C14.5205 26.3068 14.6058 26.5128 14.7577 26.6646C14.9095 26.8165 15.1155 26.9018 15.3302 26.9018H20.1883C20.4031 26.9018 20.609 26.8165 20.7609 26.6646C20.9127 26.5128 20.998 26.3068 20.998 26.0921V22.8533C20.998 22.6386 20.9127 22.4327 20.7609 22.2808C20.609 22.129 20.4031 22.0437 20.1883 22.0437H15.3302C15.1155 22.0437 14.9095 22.129 14.7577 22.2808C14.6058 22.4327 14.5205 22.6386 14.5205 22.8533V26.0921ZM22.6174 26.0921C22.6174 26.3068 22.7027 26.5128 22.8545 26.6646C23.0064 26.8165 23.2123 26.9018 23.4271 26.9018H28.2852C28.5 26.9018 28.7059 26.8165 28.8578 26.6646C29.0096 26.5128 29.0949 26.3068 29.0949 26.0921V19.6146C29.0949 19.3998 29.0096 19.1939 28.8578 19.0421C28.7059 18.8902 28.5 18.8049 28.2852 18.8049H23.4271C23.2123 18.8049 23.0064 18.8902 22.8545 19.0421C22.7027 19.1939 22.6174 19.3998 22.6174 19.6146V26.0921ZM23.4271 12.3274C23.2123 12.3274 23.0064 12.4127 22.8545 12.5645C22.7027 12.7164 22.6174 12.9223 22.6174 13.1371V16.3758C22.6174 16.5906 22.7027 16.7965 22.8545 16.9484C23.0064 17.1002 23.2123 17.1855 23.4271 17.1855H28.2852C28.5 17.1855 28.7059 17.1002 28.8578 16.9484C29.0096 16.7965 29.0949 16.5906 29.0949 16.3758V13.1371C29.0949 12.9223 29.0096 12.7164 28.8578 12.5645C28.7059 12.4127 28.5 12.3274 28.2852 12.3274H23.4271Z" fill="white"/>
</g>
<defs>
<filter id="filter0_d_447_1117" x="0.562091" y="0.311404" width="41.8446" height="39.9015" filterUnits="userSpaceOnUse" color-interpolation-filters="sRGB">
<feFlood flood-opacity="0" result="BackgroundImageFix"/>
<feColorMatrix in="SourceAlpha" type="matrix" values="0 0 0 0 0 0 0 0 0 0 0 0 0 0 0 0 0 0 127 0" result="hardAlpha"/>
<feOffset dy="0.647751"/>
<feGaussianBlur stdDeviation="2.20235"/>
<feComposite in2="hardAlpha" operator="out"/>
<feColorMatrix type="matrix" values="0 0 0 0 0.0078132 0 0 0 0 0.078132 0 0 0 0 0.113726 0 0 0 0.25 0"/>
<feBlend mode="normal" in2="BackgroundImageFix" result="effect1_dropShadow_447_1117"/>
<feBlend mode="normal" in="SourceGraphic" in2="effect1_dropShadow_447_1117" result="shape"/>
</filter>
</defs>
</svg>
